<?xml version="1.0" encoding="utf-8"?>
<!-- Generator: Adobe Illustrator 16.0.0, SVG Export Plug-In . SVG Version: 6.00 Build 0)  -->
<!DOCTYPE svg PUBLIC "-//W3C//DTD SVG 1.1//EN" "http://www.w3.org/Graphics/SVG/1.1/DTD/svg11.dtd">
<svg version="1.1" id="Layer_1" xmlns="http://www.w3.org/2000/svg" xmlns:xlink="http://www.w3.org/1999/xlink" x="0px" y="0px"
	 width="96px" height="96px" viewBox="0 0 96 96" enable-background="new 0 0 96 96" xml:space="preserve">
<circle fill="#9C9C9C" cx="48" cy="48" r="48"/>
<g>
	<path fill="#FFFFFF" d="M38.83,49.359c-7.749,3.49-13.368,10.741-14.349,19.601c0,2.952,2.237,5.371,5.202,5.371h37.592
		c2.968,0,5.202-2.419,5.202-5.371c-0.98-8.859-6.604-16.11-14.349-19.601c-1.741,3.49-5.398,6.176-9.649,6.176
		C44.229,55.535,40.571,52.85,38.83,49.359z"/>
	<path fill="#FFFFFF" d="M61.905,34.054c0,7.414-6.011,13.425-13.426,13.425c-7.416,0-13.425-6.011-13.425-13.425
		c0-7.415,6.01-13.425,13.425-13.425C55.895,20.629,61.905,26.64,61.905,34.054z"/>
</g>
</svg>
